<svg viewBox="0 0 600 600" xmlns="http://www.w3.org/2000/svg">
  <defs>
    <radialGradient id="g1" cx="50%" cy="40%" r="60%">
      <stop offset="0%" stop-color="#9b5cff" stop-opacity="1" />
      <stop offset="50%" stop-color="#06b6d4" stop-opacity="0.8" />
      <stop offset="100%" stop-color="#f472b6" stop-opacity="0.6" />
    </radialGradient>
    <filter id="glow" x="-50%" y="-50%" width="200%" height="200%">
      <feGaussianBlur stdDeviation="12" result="coloredBlur"/>
      <feMerge>
        <feMergeNode in="coloredBlur"/>
        <feMergeNode in="SourceGraphic"/>
      </feMerge>
    </filter>
  </defs>

  <rect width="100%" height="100%" rx="24" fill="url(#g1)" opacity="0.06" />

  <g transform="translate(80,80) scale(0.8)" filter="url(#glow)">
    <path d="M110 20c40-10 90 0 130 30s60 80 40 110-70 40-110 20-80-70-60-110 10-40 0-60z" fill="#ffffff" opacity="0.06"/>
    <path d="M120 60c30-8 70 0 100 24s45 58 30 82-52 30-82 16-60-46-45-76 8-26  -3-46z" fill="url(#g1)"/>
    <circle cx="200" cy="140" r="6" fill="#fff" opacity="0.9" />
    <circle cx="150" cy="110" r="4" fill="#fff" opacity="0.9" />
    <circle cx="180" cy="80" r="3" fill="#fff" opacity="0.9" />
  </g>

</svg>
